<?xml version="1.0" encoding="UTF-8" standalone="no"?>
<!DOCTYPE svg PUBLIC "-//W3C//DTD SVG 1.1//EN"
 "http://www.w3.org/Graphics/SVG/1.1/DTD/svg11.dtd">
<!-- Generated by graphviz version 2.40.1 (20161225.0304)
 -->
<!-- Title: car_price Pages: 1 -->
<svg width="329pt" height="525pt"
 viewBox="0.00 0.00 329.00 525.00" xmlns="http://www.w3.org/2000/svg" xmlns:xlink="http://www.w3.org/1999/xlink">
<g id="graph0" class="graph" transform="scale(1 1) rotate(0) translate(4 521)">
<title>car_price</title>
<polygon fill="#ffffff" stroke="transparent" points="-4,4 -4,-521 325,-521 325,4 -4,4"/>
<!-- car_price -->
<g id="node1" class="node">
<title>car_price</title>
<polygon fill="#efefef" stroke="transparent" points="46.5,-435.5 46.5,-470.5 275.5,-470.5 275.5,-435.5 46.5,-435.5"/>
<polygon fill="none" stroke="#000000" points="46.5,-435.5 46.5,-470.5 275.5,-470.5 275.5,-435.5 46.5,-435.5"/>
<text text-anchor="start" x="60.2143" y="-448.3" font-family="Arial Bold" font-size="18.00" fill="#000000">car_price</text>
<text text-anchor="start" x="134.2177" y="-448.3" font-family="Arial" font-size="14.00" fill="#000000">    </text>
<text text-anchor="start" x="168.4225" y="-448.3" font-family="Arial" font-size="14.00" fill="#666666">[BASE TABLE]</text>
<polygon fill="none" stroke="#000000" points="46.5,-405.5 46.5,-435.5 275.5,-435.5 275.5,-405.5 46.5,-405.5"/>
<text text-anchor="start" x="53.5" y="-416.9" font-family="Arial" font-size="14.00" fill="#000000">id </text>
<text text-anchor="start" x="68.2798" y="-416.9" font-family="Arial" font-size="14.00" fill="#666666">[int unsigned]</text>
<polygon fill="none" stroke="#000000" points="46.5,-375.5 46.5,-405.5 275.5,-405.5 275.5,-375.5 46.5,-375.5"/>
<text text-anchor="start" x="53.5" y="-386.9" font-family="Arial" font-size="14.00" fill="#000000">car_id </text>
<text text-anchor="start" x="95.5056" y="-386.9" font-family="Arial" font-size="14.00" fill="#666666">[int]</text>
<polygon fill="none" stroke="#000000" points="46.5,-345.5 46.5,-375.5 275.5,-375.5 275.5,-345.5 46.5,-345.5"/>
<text text-anchor="start" x="53.5" y="-356.9" font-family="Arial" font-size="14.00" fill="#000000">weekday </text>
<text text-anchor="start" x="112.6276" y="-356.9" font-family="Arial" font-size="14.00" fill="#666666">[double(10,2)]</text>
<polygon fill="none" stroke="#000000" points="46.5,-315.5 46.5,-345.5 275.5,-345.5 275.5,-315.5 46.5,-315.5"/>
<text text-anchor="start" x="53.5" y="-326.9" font-family="Arial" font-size="14.00" fill="#000000">friday </text>
<text text-anchor="start" x="91.6136" y="-326.9" font-family="Arial" font-size="14.00" fill="#666666">[double(10,2)]</text>
<polygon fill="none" stroke="#000000" points="46.5,-285.5 46.5,-315.5 275.5,-315.5 275.5,-285.5 46.5,-285.5"/>
<text text-anchor="start" x="53.5" y="-296.9" font-family="Arial" font-size="14.00" fill="#000000">weekend </text>
<text text-anchor="start" x="113.4102" y="-296.9" font-family="Arial" font-size="14.00" fill="#666666">[double(10,2)]</text>
<polygon fill="none" stroke="#000000" points="46.5,-255.5 46.5,-285.5 275.5,-285.5 275.5,-255.5 46.5,-255.5"/>
<text text-anchor="start" x="53.5" y="-266.9" font-family="Arial" font-size="14.00" fill="#000000">holiday </text>
<text text-anchor="start" x="101.7342" y="-266.9" font-family="Arial" font-size="14.00" fill="#666666">[double(10,2)]</text>
<polygon fill="none" stroke="#000000" points="46.5,-225.5 46.5,-255.5 275.5,-255.5 275.5,-225.5 46.5,-225.5"/>
<text text-anchor="start" x="53.5" y="-236.9" font-family="Arial" font-size="14.00" fill="#000000">spring_festival </text>
<text text-anchor="start" x="146.8478" y="-236.9" font-family="Arial" font-size="14.00" fill="#666666">[double(10,2)]</text>
<polygon fill="none" stroke="#000000" points="46.5,-195.5 46.5,-225.5 275.5,-225.5 275.5,-195.5 46.5,-195.5"/>
<text text-anchor="start" x="53.5" y="-206.9" font-family="Arial" font-size="14.00" fill="#000000">hour </text>
<text text-anchor="start" x="85.399" y="-206.9" font-family="Arial" font-size="14.00" fill="#666666">[double(10,2)]</text>
<polygon fill="none" stroke="#000000" points="46.5,-165.5 46.5,-195.5 275.5,-195.5 275.5,-165.5 46.5,-165.5"/>
<text text-anchor="start" x="53.2504" y="-176.9" font-family="Arial" font-size="14.00" fill="#000000">spring_festival_hour </text>
<text text-anchor="start" x="182.3892" y="-176.9" font-family="Arial" font-size="14.00" fill="#666666">[double(10,2)]</text>
<polygon fill="none" stroke="#000000" points="46.5,-135.5 46.5,-165.5 275.5,-165.5 275.5,-135.5 46.5,-135.5"/>
<text text-anchor="start" x="53.5" y="-146.9" font-family="Arial" font-size="14.00" fill="#000000">accept_hour </text>
<text text-anchor="start" x="134.42" y="-146.9" font-family="Arial" font-size="14.00" fill="#666666">[tinyint]</text>
<polygon fill="none" stroke="#000000" points="46.5,-105.5 46.5,-135.5 275.5,-135.5 275.5,-105.5 46.5,-105.5"/>
<text text-anchor="start" x="53.5" y="-116.9" font-family="Arial" font-size="14.00" fill="#000000">hour_threshold </text>
<text text-anchor="start" x="150.7524" y="-116.9" font-family="Arial" font-size="14.00" fill="#666666">[tinyint]</text>
<polygon fill="none" stroke="#000000" points="46.5,-75.5 46.5,-105.5 275.5,-105.5 275.5,-75.5 46.5,-75.5"/>
<text text-anchor="start" x="53.5" y="-86.9" font-family="Arial" font-size="14.00" fill="#000000">created_at </text>
<text text-anchor="start" x="123.528" y="-86.9" font-family="Arial" font-size="14.00" fill="#666666">[timestamp]</text>
<polygon fill="none" stroke="#000000" points="46.5,-45.5 46.5,-75.5 275.5,-75.5 275.5,-45.5 46.5,-45.5"/>
<text text-anchor="start" x="53.5" y="-56.9" font-family="Arial" font-size="14.00" fill="#000000">updated_at </text>
<text text-anchor="start" x="127.4326" y="-56.9" font-family="Arial" font-size="14.00" fill="#666666">[timestamp]</text>
<polygon fill="none" stroke="#000000" stroke-width="3" points="44.5,-44.5 44.5,-472.5 276.5,-472.5 276.5,-44.5 44.5,-44.5"/>
</g>
</g>
</svg>
