<?xml version="1.0" encoding="UTF-8" standalone="no"?>
<!DOCTYPE svg PUBLIC "-//W3C//DTD SVG 1.1//EN"
 "http://www.w3.org/Graphics/SVG/1.1/DTD/svg11.dtd">
<!-- Generated by graphviz version 2.40.1 (20161225.0304)
 -->
<!-- Title: orders_detail Pages: 1 -->
<svg width="345pt" height="885pt"
 viewBox="0.00 0.00 345.00 885.00" xmlns="http://www.w3.org/2000/svg" xmlns:xlink="http://www.w3.org/1999/xlink">
<g id="graph0" class="graph" transform="scale(1 1) rotate(0) translate(4 881)">
<title>orders_detail</title>
<polygon fill="#ffffff" stroke="transparent" points="-4,4 -4,-881 341,-881 341,4 -4,4"/>
<!-- orders_detail -->
<g id="node1" class="node">
<title>orders_detail</title>
<polygon fill="#efefef" stroke="transparent" points="46.5,-795.5 46.5,-830.5 291.5,-830.5 291.5,-795.5 46.5,-795.5"/>
<polygon fill="none" stroke="#000000" points="46.5,-795.5 46.5,-830.5 291.5,-830.5 291.5,-795.5 46.5,-795.5"/>
<text text-anchor="start" x="53.2068" y="-808.3" font-family="Arial Bold" font-size="18.00" fill="#000000">orders_detail</text>
<text text-anchor="start" x="157.2252" y="-808.3" font-family="Arial" font-size="14.00" fill="#000000">    </text>
<text text-anchor="start" x="191.43" y="-808.3" font-family="Arial" font-size="14.00" fill="#666666">[BASE TABLE]</text>
<polygon fill="none" stroke="#000000" points="46.5,-765.5 46.5,-795.5 291.5,-795.5 291.5,-765.5 46.5,-765.5"/>
<text text-anchor="start" x="53.5" y="-776.9" font-family="Arial" font-size="14.00" fill="#000000">id </text>
<text text-anchor="start" x="68.2798" y="-776.9" font-family="Arial" font-size="14.00" fill="#666666">[bigint unsigned]</text>
<polygon fill="none" stroke="#000000" points="46.5,-735.5 46.5,-765.5 291.5,-765.5 291.5,-735.5 46.5,-735.5"/>
<text text-anchor="start" x="53.5" y="-746.9" font-family="Arial" font-size="14.00" fill="#000000">orders_id </text>
<text text-anchor="start" x="115.7314" y="-746.9" font-family="Arial" font-size="14.00" fill="#666666">[bigint]</text>
<polygon fill="none" stroke="#000000" points="46.5,-705.5 46.5,-735.5 291.5,-735.5 291.5,-705.5 46.5,-705.5"/>
<text text-anchor="start" x="53.5" y="-716.9" font-family="Arial" font-size="14.00" fill="#000000">email </text>
<text text-anchor="start" x="90.8296" y="-716.9" font-family="Arial" font-size="14.00" fill="#666666">[varchar(50)]</text>
<polygon fill="none" stroke="#000000" points="46.5,-675.5 46.5,-705.5 291.5,-705.5 291.5,-675.5 46.5,-675.5"/>
<text text-anchor="start" x="53.5" y="-686.9" font-family="Arial" font-size="14.00" fill="#000000">mobile </text>
<text text-anchor="start" x="98.6122" y="-686.9" font-family="Arial" font-size="14.00" fill="#666666">[varchar(20)]</text>
<polygon fill="none" stroke="#000000" points="46.5,-645.5 46.5,-675.5 291.5,-675.5 291.5,-645.5 46.5,-645.5"/>
<text text-anchor="start" x="53.5" y="-656.9" font-family="Arial" font-size="14.00" fill="#000000">name </text>
<text text-anchor="start" x="92.399" y="-656.9" font-family="Arial" font-size="14.00" fill="#666666">[varchar(50)]</text>
<polygon fill="none" stroke="#000000" points="46.5,-615.5 46.5,-645.5 291.5,-645.5 291.5,-615.5 46.5,-615.5"/>
<text text-anchor="start" x="53.5" y="-626.9" font-family="Arial" font-size="14.00" fill="#000000">identity </text>
<text text-anchor="start" x="101.7328" y="-626.9" font-family="Arial" font-size="14.00" fill="#666666">[varchar(20)]</text>
<polygon fill="none" stroke="#000000" points="46.5,-585.5 46.5,-615.5 291.5,-615.5 291.5,-585.5 46.5,-585.5"/>
<text text-anchor="start" x="53.5" y="-596.9" font-family="Arial" font-size="14.00" fill="#000000">passport </text>
<text text-anchor="start" x="111.0722" y="-596.9" font-family="Arial" font-size="14.00" fill="#666666">[varchar(20)]</text>
<polygon fill="none" stroke="#000000" points="46.5,-555.5 46.5,-585.5 291.5,-585.5 291.5,-555.5 46.5,-555.5"/>
<text text-anchor="start" x="53.5" y="-566.9" font-family="Arial" font-size="14.00" fill="#000000">birthday </text>
<text text-anchor="start" x="107.1788" y="-566.9" font-family="Arial" font-size="14.00" fill="#666666">[date]</text>
<polygon fill="none" stroke="#000000" points="46.5,-525.5 46.5,-555.5 291.5,-555.5 291.5,-525.5 46.5,-525.5"/>
<text text-anchor="start" x="53.5" y="-536.9" font-family="Arial" font-size="14.00" fill="#000000">car_license </text>
<text text-anchor="start" x="128.1774" y="-536.9" font-family="Arial" font-size="14.00" fill="#666666">[varchar(20)]</text>
<polygon fill="none" stroke="#000000" points="46.5,-495.5 46.5,-525.5 291.5,-525.5 291.5,-495.5 46.5,-495.5"/>
<text text-anchor="start" x="53.5" y="-506.9" font-family="Arial" font-size="14.00" fill="#000000">car_brand_id </text>
<text text-anchor="start" x="139.0792" y="-506.9" font-family="Arial" font-size="14.00" fill="#666666">[int]</text>
<polygon fill="none" stroke="#000000" points="46.5,-465.5 46.5,-495.5 291.5,-495.5 291.5,-465.5 46.5,-465.5"/>
<text text-anchor="start" x="53.5" y="-476.9" font-family="Arial" font-size="14.00" fill="#000000">car_model_id </text>
<text text-anchor="start" x="141.4032" y="-476.9" font-family="Arial" font-size="14.00" fill="#666666">[int]</text>
<polygon fill="none" stroke="#000000" points="46.5,-435.5 46.5,-465.5 291.5,-465.5 291.5,-435.5 46.5,-435.5"/>
<text text-anchor="start" x="53.5" y="-446.9" font-family="Arial" font-size="14.00" fill="#000000">car_type_id </text>
<text text-anchor="start" x="129.744" y="-446.9" font-family="Arial" font-size="14.00" fill="#666666">[int]</text>
<polygon fill="none" stroke="#000000" points="46.5,-405.5 46.5,-435.5 291.5,-435.5 291.5,-405.5 46.5,-405.5"/>
<text text-anchor="start" x="53.5" y="-416.9" font-family="Arial" font-size="14.00" fill="#000000">car_age </text>
<text text-anchor="start" x="107.9642" y="-416.9" font-family="Arial" font-size="14.00" fill="#666666">[int]</text>
<polygon fill="none" stroke="#000000" points="46.5,-375.5 46.5,-405.5 291.5,-405.5 291.5,-375.5 46.5,-375.5"/>
<text text-anchor="start" x="53.5" y="-386.9" font-family="Arial" font-size="14.00" fill="#000000">is_local </text>
<text text-anchor="start" x="104.0582" y="-386.9" font-family="Arial" font-size="14.00" fill="#666666">[tinyint]</text>
<polygon fill="none" stroke="#000000" points="46.5,-345.5 46.5,-375.5 291.5,-375.5 291.5,-345.5 46.5,-345.5"/>
<text text-anchor="start" x="53.5" y="-356.9" font-family="Arial" font-size="14.00" fill="#000000">transmission </text>
<text text-anchor="start" x="135.946" y="-356.9" font-family="Arial" font-size="14.00" fill="#666666">[varchar(5)]</text>
<polygon fill="none" stroke="#000000" points="46.5,-315.5 46.5,-345.5 291.5,-345.5 291.5,-315.5 46.5,-315.5"/>
<text text-anchor="start" x="53.5" y="-326.9" font-family="Arial" font-size="14.00" fill="#000000">exhaust </text>
<text text-anchor="start" x="106.4116" y="-326.9" font-family="Arial" font-size="14.00" fill="#666666">[int]</text>
<polygon fill="none" stroke="#000000" points="46.5,-285.5 46.5,-315.5 291.5,-315.5 291.5,-285.5 46.5,-285.5"/>
<text text-anchor="start" x="53.5" y="-296.9" font-family="Arial" font-size="14.00" fill="#000000">doors </text>
<text text-anchor="start" x="92.399" y="-296.9" font-family="Arial" font-size="14.00" fill="#666666">[int]</text>
<polygon fill="none" stroke="#000000" points="46.5,-255.5 46.5,-285.5 291.5,-285.5 291.5,-255.5 46.5,-255.5"/>
<text text-anchor="start" x="53.5" y="-266.9" font-family="Arial" font-size="14.00" fill="#000000">seats </text>
<text text-anchor="start" x="90.8464" y="-266.9" font-family="Arial" font-size="14.00" fill="#666666">[int]</text>
<polygon fill="none" stroke="#000000" points="46.5,-225.5 46.5,-255.5 291.5,-255.5 291.5,-225.5 46.5,-225.5"/>
<text text-anchor="start" x="53.5" y="-236.9" font-family="Arial" font-size="14.00" fill="#000000">car_insurances </text>
<text text-anchor="start" x="152.2966" y="-236.9" font-family="Arial" font-size="14.00" fill="#666666">[varchar(50)]</text>
<polygon fill="none" stroke="#000000" points="46.5,-195.5 46.5,-225.5 291.5,-225.5 291.5,-195.5 46.5,-195.5"/>
<text text-anchor="start" x="53.5" y="-206.9" font-family="Arial" font-size="14.00" fill="#000000">car_equips </text>
<text text-anchor="start" x="125.8534" y="-206.9" font-family="Arial" font-size="14.00" fill="#666666">[varchar(50)]</text>
<polygon fill="none" stroke="#000000" points="46.5,-165.5 46.5,-195.5 291.5,-195.5 291.5,-165.5 46.5,-165.5"/>
<text text-anchor="start" x="53.5" y="-176.9" font-family="Arial" font-size="14.00" fill="#000000">fuel_rule </text>
<text text-anchor="start" x="111.068" y="-176.9" font-family="Arial" font-size="14.00" fill="#666666">[varchar(50)]</text>
<polygon fill="none" stroke="#000000" points="46.5,-135.5 46.5,-165.5 291.5,-165.5 291.5,-135.5 46.5,-135.5"/>
<text text-anchor="start" x="53.5" y="-146.9" font-family="Arial" font-size="14.00" fill="#000000">store_policy </text>
<text text-anchor="start" x="132.068" y="-146.9" font-family="Arial" font-size="14.00" fill="#666666">[varchar(50)]</text>
<polygon fill="none" stroke="#000000" points="46.5,-105.5 46.5,-135.5 291.5,-135.5 291.5,-105.5 46.5,-105.5"/>
<text text-anchor="start" x="53.5" y="-116.9" font-family="Arial" font-size="14.00" fill="#000000">distance_rule </text>
<text text-anchor="start" x="140.6332" y="-116.9" font-family="Arial" font-size="14.00" fill="#666666">[varchar(50)]</text>
<polygon fill="none" stroke="#000000" points="46.5,-75.5 46.5,-105.5 291.5,-105.5 291.5,-75.5 46.5,-75.5"/>
<text text-anchor="start" x="53.5" y="-86.9" font-family="Arial" font-size="14.00" fill="#000000">created_at </text>
<text text-anchor="start" x="123.528" y="-86.9" font-family="Arial" font-size="14.00" fill="#666666">[timestamp]</text>
<polygon fill="none" stroke="#000000" points="46.5,-45.5 46.5,-75.5 291.5,-75.5 291.5,-45.5 46.5,-45.5"/>
<text text-anchor="start" x="53.5" y="-56.9" font-family="Arial" font-size="14.00" fill="#000000">updated_at </text>
<text text-anchor="start" x="127.4326" y="-56.9" font-family="Arial" font-size="14.00" fill="#666666">[timestamp]</text>
<polygon fill="none" stroke="#000000" stroke-width="3" points="44.5,-44.5 44.5,-832.5 292.5,-832.5 292.5,-44.5 44.5,-44.5"/>
</g>
</g>
</svg>
