<?xml version="1.0" encoding="UTF-8" standalone="no"?>
<!DOCTYPE svg PUBLIC "-//W3C//DTD SVG 1.1//EN"
 "http://www.w3.org/Graphics/SVG/1.1/DTD/svg11.dtd">
<!-- Generated by graphviz version 2.40.1 (20161225.0304)
 -->
<!-- Title: storeapp Pages: 1 -->
<svg width="3831pt" height="879pt"
 viewBox="0.00 0.00 3830.50 879.00" xmlns="http://www.w3.org/2000/svg" xmlns:xlink="http://www.w3.org/1999/xlink">
<g id="graph0" class="graph" transform="scale(1 1) rotate(0) translate(4 875)">
<title>storeapp</title>
<polygon fill="#ffffff" stroke="transparent" points="-4,4 -4,-875 3826.5,-875 3826.5,4 -4,4"/>
<!-- car_price -->
<g id="node1" class="node">
<title>car_price</title>
<polygon fill="#efefef" stroke="transparent" points="43.5,-612.5 43.5,-647.5 302.5,-647.5 302.5,-612.5 43.5,-612.5"/>
<polygon fill="none" stroke="#000000" points="43.5,-612.5 43.5,-647.5 302.5,-647.5 302.5,-612.5 43.5,-612.5"/>
<text text-anchor="start" x="72.2143" y="-625.3" font-family="Arial Bold" font-size="18.00" fill="#000000">car_price</text>
<text text-anchor="start" x="146.2177" y="-625.3" font-family="Arial" font-size="14.00" fill="#000000">    </text>
<text text-anchor="start" x="180.4225" y="-625.3" font-family="Arial" font-size="14.00" fill="#666666">[BASE TABLE]</text>
<polygon fill="none" stroke="#000000" points="43.5,-582.5 43.5,-612.5 302.5,-612.5 302.5,-582.5 43.5,-582.5"/>
<text text-anchor="start" x="50.5" y="-593.9" font-family="Arial" font-size="14.00" fill="#000000">id    </text>
<text text-anchor="start" x="95.594" y="-593.9" font-family="Arial" font-size="14.00" fill="#666666">[int unsigned]</text>
<polygon fill="none" stroke="#000000" points="43.5,-552.5 43.5,-582.5 302.5,-582.5 302.5,-552.5 43.5,-552.5"/>
<text text-anchor="start" x="50.5" y="-563.9" font-family="Arial" font-size="14.00" fill="#000000">car_id    </text>
<text text-anchor="start" x="122.8198" y="-563.9" font-family="Arial" font-size="14.00" fill="#666666">[int]</text>
<polygon fill="none" stroke="#000000" points="43.5,-522.5 43.5,-552.5 302.5,-552.5 302.5,-522.5 43.5,-522.5"/>
<text text-anchor="start" x="50.5" y="-533.9" font-family="Arial" font-size="14.00" fill="#000000">weekday    </text>
<text text-anchor="start" x="139.9418" y="-533.9" font-family="Arial" font-size="14.00" fill="#666666">[double(10,2)]</text>
<polygon fill="none" stroke="#000000" points="43.5,-492.5 43.5,-522.5 302.5,-522.5 302.5,-492.5 43.5,-492.5"/>
<text text-anchor="start" x="50.5" y="-503.9" font-family="Arial" font-size="14.00" fill="#000000">friday    </text>
<text text-anchor="start" x="118.9278" y="-503.9" font-family="Arial" font-size="14.00" fill="#666666">[double(10,2)]</text>
<polygon fill="none" stroke="#000000" points="43.5,-462.5 43.5,-492.5 302.5,-492.5 302.5,-462.5 43.5,-462.5"/>
<text text-anchor="start" x="50.5" y="-473.9" font-family="Arial" font-size="14.00" fill="#000000">weekend    </text>
<text text-anchor="start" x="140.7244" y="-473.9" font-family="Arial" font-size="14.00" fill="#666666">[double(10,2)]</text>
<polygon fill="none" stroke="#000000" points="43.5,-432.5 43.5,-462.5 302.5,-462.5 302.5,-432.5 43.5,-432.5"/>
<text text-anchor="start" x="50.5" y="-443.9" font-family="Arial" font-size="14.00" fill="#000000">holiday    </text>
<text text-anchor="start" x="129.0484" y="-443.9" font-family="Arial" font-size="14.00" fill="#666666">[double(10,2)]</text>
<polygon fill="none" stroke="#000000" points="43.5,-402.5 43.5,-432.5 302.5,-432.5 302.5,-402.5 43.5,-402.5"/>
<text text-anchor="start" x="50.5" y="-413.9" font-family="Arial" font-size="14.00" fill="#000000">spring_festival    </text>
<text text-anchor="start" x="174.162" y="-413.9" font-family="Arial" font-size="14.00" fill="#666666">[double(10,2)]</text>
<polygon fill="none" stroke="#000000" points="43.5,-372.5 43.5,-402.5 302.5,-402.5 302.5,-372.5 43.5,-372.5"/>
<text text-anchor="start" x="50.5" y="-383.9" font-family="Arial" font-size="14.00" fill="#000000">hour    </text>
<text text-anchor="start" x="112.7132" y="-383.9" font-family="Arial" font-size="14.00" fill="#666666">[double(10,2)]</text>
<polygon fill="none" stroke="#000000" points="43.5,-342.5 43.5,-372.5 302.5,-372.5 302.5,-342.5 43.5,-342.5"/>
<text text-anchor="start" x="50.0933" y="-353.9" font-family="Arial" font-size="14.00" fill="#000000">spring_festival_hour    </text>
<text text-anchor="start" x="209.5463" y="-353.9" font-family="Arial" font-size="14.00" fill="#666666">[double(10,2)]</text>
<polygon fill="none" stroke="#000000" points="43.5,-312.5 43.5,-342.5 302.5,-342.5 302.5,-312.5 43.5,-312.5"/>
<text text-anchor="start" x="50.5" y="-323.9" font-family="Arial" font-size="14.00" fill="#000000">accept_hour    </text>
<text text-anchor="start" x="161.7342" y="-323.9" font-family="Arial" font-size="14.00" fill="#666666">[tinyint]</text>
<polygon fill="none" stroke="#000000" points="43.5,-282.5 43.5,-312.5 302.5,-312.5 302.5,-282.5 43.5,-282.5"/>
<text text-anchor="start" x="50.5" y="-293.9" font-family="Arial" font-size="14.00" fill="#000000">hour_threshold    </text>
<text text-anchor="start" x="178.0666" y="-293.9" font-family="Arial" font-size="14.00" fill="#666666">[tinyint]</text>
<polygon fill="none" stroke="#000000" points="43.5,-252.5 43.5,-282.5 302.5,-282.5 302.5,-252.5 43.5,-252.5"/>
<text text-anchor="start" x="50.5" y="-263.9" font-family="Arial" font-size="14.00" fill="#000000">created_at    </text>
<text text-anchor="start" x="150.8422" y="-263.9" font-family="Arial" font-size="14.00" fill="#666666">[timestamp]</text>
<polygon fill="none" stroke="#000000" points="43.5,-222.5 43.5,-252.5 302.5,-252.5 302.5,-222.5 43.5,-222.5"/>
<text text-anchor="start" x="50.5" y="-233.9" font-family="Arial" font-size="14.00" fill="#000000">updated_at    </text>
<text text-anchor="start" x="154.7468" y="-233.9" font-family="Arial" font-size="14.00" fill="#666666">[timestamp]</text>
</g>
<!-- members -->
<g id="node2" class="node">
<title>members</title>
<polygon fill="#efefef" stroke="transparent" points="406.5,-597.5 406.5,-632.5 622.5,-632.5 622.5,-597.5 406.5,-597.5"/>
<polygon fill="none" stroke="#000000" points="406.5,-597.5 406.5,-632.5 622.5,-632.5 622.5,-597.5 406.5,-597.5"/>
<text text-anchor="start" x="413.2184" y="-610.3" font-family="Arial Bold" font-size="18.00" fill="#000000">members</text>
<text text-anchor="start" x="488.2136" y="-610.3" font-family="Arial" font-size="14.00" fill="#000000">    </text>
<text text-anchor="start" x="522.4184" y="-610.3" font-family="Arial" font-size="14.00" fill="#666666">[BASE TABLE]</text>
<polygon fill="none" stroke="#000000" points="406.5,-567.5 406.5,-597.5 622.5,-597.5 622.5,-567.5 406.5,-567.5"/>
<text text-anchor="start" x="413.5" y="-578.9" font-family="Arial" font-size="14.00" fill="#000000">id    </text>
<text text-anchor="start" x="458.594" y="-578.9" font-family="Arial" font-size="14.00" fill="#666666">[bigint unsigned]</text>
<polygon fill="none" stroke="#000000" points="406.5,-537.5 406.5,-567.5 622.5,-567.5 622.5,-537.5 406.5,-537.5"/>
<text text-anchor="start" x="413.5" y="-548.9" font-family="Arial" font-size="14.00" fill="#000000">store_id    </text>
<text text-anchor="start" x="497.493" y="-548.9" font-family="Arial" font-size="14.00" fill="#666666">[int]</text>
<polygon fill="none" stroke="#000000" points="406.5,-507.5 406.5,-537.5 622.5,-537.5 622.5,-507.5 406.5,-507.5"/>
<text text-anchor="start" x="413.5" y="-518.9" font-family="Arial" font-size="14.00" fill="#000000">email    </text>
<text text-anchor="start" x="481.1438" y="-518.9" font-family="Arial" font-size="14.00" fill="#666666">[varchar(50)]</text>
<polygon fill="none" stroke="#000000" points="406.5,-477.5 406.5,-507.5 622.5,-507.5 622.5,-477.5 406.5,-477.5"/>
<text text-anchor="start" x="413.5" y="-488.9" font-family="Arial" font-size="14.00" fill="#000000">password    </text>
<text text-anchor="start" x="507.6024" y="-488.9" font-family="Arial" font-size="14.00" fill="#666666">[varchar(255)]</text>
<polygon fill="none" stroke="#000000" points="406.5,-447.5 406.5,-477.5 622.5,-477.5 622.5,-447.5 406.5,-447.5"/>
<text text-anchor="start" x="413.5" y="-458.9" font-family="Arial" font-size="14.00" fill="#000000">mobile    </text>
<text text-anchor="start" x="488.9264" y="-458.9" font-family="Arial" font-size="14.00" fill="#666666">[varchar(20)]</text>
<polygon fill="none" stroke="#000000" points="406.5,-417.5 406.5,-447.5 622.5,-447.5 622.5,-417.5 406.5,-417.5"/>
<text text-anchor="start" x="413.5" y="-428.9" font-family="Arial" font-size="14.00" fill="#000000">name    </text>
<text text-anchor="start" x="482.7132" y="-428.9" font-family="Arial" font-size="14.00" fill="#666666">[varchar(50)]</text>
<polygon fill="none" stroke="#000000" points="406.5,-387.5 406.5,-417.5 622.5,-417.5 622.5,-387.5 406.5,-387.5"/>
<text text-anchor="start" x="413.5" y="-398.9" font-family="Arial" font-size="14.00" fill="#000000">identity    </text>
<text text-anchor="start" x="492.047" y="-398.9" font-family="Arial" font-size="14.00" fill="#666666">[varchar(20)]</text>
<polygon fill="none" stroke="#000000" points="406.5,-357.5 406.5,-387.5 622.5,-387.5 622.5,-357.5 406.5,-357.5"/>
<text text-anchor="start" x="413.5" y="-368.9" font-family="Arial" font-size="14.00" fill="#000000">passport    </text>
<text text-anchor="start" x="501.3864" y="-368.9" font-family="Arial" font-size="14.00" fill="#666666">[varchar(20)]</text>
<polygon fill="none" stroke="#000000" points="406.5,-327.5 406.5,-357.5 622.5,-357.5 622.5,-327.5 406.5,-327.5"/>
<text text-anchor="start" x="413.5" y="-338.9" font-family="Arial" font-size="14.00" fill="#000000">birthday    </text>
<text text-anchor="start" x="497.493" y="-338.9" font-family="Arial" font-size="14.00" fill="#666666">[date]</text>
<polygon fill="none" stroke="#000000" points="406.5,-297.5 406.5,-327.5 622.5,-327.5 622.5,-297.5 406.5,-297.5"/>
<text text-anchor="start" x="413.5" y="-308.9" font-family="Arial" font-size="14.00" fill="#000000">disabled    </text>
<text text-anchor="start" x="499.831" y="-308.9" font-family="Arial" font-size="14.00" fill="#666666">[tinyint]</text>
<polygon fill="none" stroke="#000000" points="406.5,-267.5 406.5,-297.5 622.5,-297.5 622.5,-267.5 406.5,-267.5"/>
<text text-anchor="start" x="413.5" y="-278.9" font-family="Arial" font-size="14.00" fill="#000000">created_at    </text>
<text text-anchor="start" x="513.8422" y="-278.9" font-family="Arial" font-size="14.00" fill="#666666">[timestamp]</text>
<polygon fill="none" stroke="#000000" points="406.5,-237.5 406.5,-267.5 622.5,-267.5 622.5,-237.5 406.5,-237.5"/>
<text text-anchor="start" x="413.5" y="-248.9" font-family="Arial" font-size="14.00" fill="#000000">updated_at    </text>
<text text-anchor="start" x="517.7468" y="-248.9" font-family="Arial" font-size="14.00" fill="#666666">[timestamp]</text>
</g>
<!-- migrations -->
<g id="node3" class="node">
<title>migrations</title>
<polygon fill="#efefef" stroke="transparent" points="726.5,-462.5 726.5,-497.5 950.5,-497.5 950.5,-462.5 726.5,-462.5"/>
<polygon fill="none" stroke="#000000" points="726.5,-462.5 726.5,-497.5 950.5,-497.5 950.5,-462.5 726.5,-462.5"/>
<text text-anchor="start" x="733.2161" y="-475.3" font-family="Arial Bold" font-size="18.00" fill="#000000">migrations</text>
<text text-anchor="start" x="816.2159" y="-475.3" font-family="Arial" font-size="14.00" fill="#000000">    </text>
<text text-anchor="start" x="850.4207" y="-475.3" font-family="Arial" font-size="14.00" fill="#666666">[BASE TABLE]</text>
<polygon fill="none" stroke="#000000" points="726.5,-432.5 726.5,-462.5 950.5,-462.5 950.5,-432.5 726.5,-432.5"/>
<text text-anchor="start" x="733.5" y="-443.9" font-family="Arial" font-size="14.00" fill="#000000">id    </text>
<text text-anchor="start" x="778.594" y="-443.9" font-family="Arial" font-size="14.00" fill="#666666">[int unsigned]</text>
<polygon fill="none" stroke="#000000" points="726.5,-402.5 726.5,-432.5 950.5,-432.5 950.5,-402.5 726.5,-402.5"/>
<text text-anchor="start" x="733.5" y="-413.9" font-family="Arial" font-size="14.00" fill="#000000">migration    </text>
<text text-anchor="start" x="825.2602" y="-413.9" font-family="Arial" font-size="14.00" fill="#666666">[varchar(255)]</text>
<polygon fill="none" stroke="#000000" points="726.5,-372.5 726.5,-402.5 950.5,-402.5 950.5,-372.5 726.5,-372.5"/>
<text text-anchor="start" x="733.5" y="-383.9" font-family="Arial" font-size="14.00" fill="#000000">batch    </text>
<text text-anchor="start" x="801.9432" y="-383.9" font-family="Arial" font-size="14.00" fill="#666666">[int]</text>
</g>
<!-- orders -->
<g id="node4" class="node">
<title>orders</title>
<polygon fill="#efefef" stroke="transparent" points="1054.5,-627.5 1054.5,-662.5 1250.5,-662.5 1250.5,-627.5 1054.5,-627.5"/>
<polygon fill="none" stroke="#000000" points="1054.5,-627.5 1054.5,-662.5 1250.5,-662.5 1250.5,-627.5 1054.5,-627.5"/>
<text text-anchor="start" x="1063.2145" y="-640.3" font-family="Arial Bold" font-size="18.00" fill="#000000">orders</text>
<text text-anchor="start" x="1114.2175" y="-640.3" font-family="Arial" font-size="14.00" fill="#000000">    </text>
<text text-anchor="start" x="1148.4223" y="-640.3" font-family="Arial" font-size="14.00" fill="#666666">[BASE TABLE]</text>
<polygon fill="none" stroke="#000000" points="1054.5,-597.5 1054.5,-627.5 1250.5,-627.5 1250.5,-597.5 1054.5,-597.5"/>
<text text-anchor="start" x="1061.5" y="-608.9" font-family="Arial" font-size="14.00" fill="#000000">id    </text>
<text text-anchor="start" x="1106.594" y="-608.9" font-family="Arial" font-size="14.00" fill="#666666">[bigint unsigned]</text>
<polygon fill="none" stroke="#000000" points="1054.5,-567.5 1054.5,-597.5 1250.5,-597.5 1250.5,-567.5 1054.5,-567.5"/>
<text text-anchor="start" x="1061.5" y="-578.9" font-family="Arial" font-size="14.00" fill="#000000">order_no    </text>
<text text-anchor="start" x="1151.7216" y="-578.9" font-family="Arial" font-size="14.00" fill="#666666">[varchar(100)]</text>
<polygon fill="none" stroke="#000000" points="1054.5,-537.5 1054.5,-567.5 1250.5,-567.5 1250.5,-537.5 1054.5,-537.5"/>
<text text-anchor="start" x="1061.5" y="-548.9" font-family="Arial" font-size="14.00" fill="#000000">store_id    </text>
<text text-anchor="start" x="1145.493" y="-548.9" font-family="Arial" font-size="14.00" fill="#666666">[int]</text>
<polygon fill="none" stroke="#000000" points="1054.5,-507.5 1054.5,-537.5 1250.5,-537.5 1250.5,-507.5 1054.5,-507.5"/>
<text text-anchor="start" x="1061.5" y="-518.9" font-family="Arial" font-size="14.00" fill="#000000">car_id    </text>
<text text-anchor="start" x="1133.8198" y="-518.9" font-family="Arial" font-size="14.00" fill="#666666">[int]</text>
<polygon fill="none" stroke="#000000" points="1054.5,-477.5 1054.5,-507.5 1250.5,-507.5 1250.5,-477.5 1054.5,-477.5"/>
<text text-anchor="start" x="1061.5" y="-488.9" font-family="Arial" font-size="14.00" fill="#000000">member_id    </text>
<text text-anchor="start" x="1165.7062" y="-488.9" font-family="Arial" font-size="14.00" fill="#666666">[int]</text>
<polygon fill="none" stroke="#000000" points="1054.5,-447.5 1054.5,-477.5 1250.5,-477.5 1250.5,-447.5 1054.5,-447.5"/>
<text text-anchor="start" x="1061.5" y="-458.9" font-family="Arial" font-size="14.00" fill="#000000">start_time    </text>
<text text-anchor="start" x="1157.1522" y="-458.9" font-family="Arial" font-size="14.00" fill="#666666">[timestamp]</text>
<polygon fill="none" stroke="#000000" points="1054.5,-417.5 1054.5,-447.5 1250.5,-447.5 1250.5,-417.5 1054.5,-417.5"/>
<text text-anchor="start" x="1061.5" y="-428.9" font-family="Arial" font-size="14.00" fill="#000000">end_time    </text>
<text text-anchor="start" x="1153.2756" y="-428.9" font-family="Arial" font-size="14.00" fill="#666666">[timestamp]</text>
<polygon fill="none" stroke="#000000" points="1054.5,-387.5 1054.5,-417.5 1250.5,-417.5 1250.5,-387.5 1054.5,-387.5"/>
<text text-anchor="start" x="1061.5" y="-398.9" font-family="Arial" font-size="14.00" fill="#000000">car_price    </text>
<text text-anchor="start" x="1153.263" y="-398.9" font-family="Arial" font-size="14.00" fill="#666666">[int]</text>
<polygon fill="none" stroke="#000000" points="1054.5,-357.5 1054.5,-387.5 1250.5,-387.5 1250.5,-357.5 1054.5,-357.5"/>
<text text-anchor="start" x="1061.5" y="-368.9" font-family="Arial" font-size="14.00" fill="#000000">status    </text>
<text text-anchor="start" x="1133.0512" y="-368.9" font-family="Arial" font-size="14.00" fill="#666666">[tinyint]</text>
<polygon fill="none" stroke="#000000" points="1054.5,-327.5 1054.5,-357.5 1250.5,-357.5 1250.5,-327.5 1054.5,-327.5"/>
<text text-anchor="start" x="1061.4909" y="-338.9" font-family="Arial" font-size="14.00" fill="#000000">canceled_at    </text>
<text text-anchor="start" x="1171.1711" y="-338.9" font-family="Arial" font-size="14.00" fill="#666666">[timestamp]</text>
<polygon fill="none" stroke="#000000" points="1054.5,-297.5 1054.5,-327.5 1250.5,-327.5 1250.5,-297.5 1054.5,-297.5"/>
<text text-anchor="start" x="1061.5" y="-308.9" font-family="Arial" font-size="14.00" fill="#000000">locale    </text>
<text text-anchor="start" x="1132.2658" y="-308.9" font-family="Arial" font-size="14.00" fill="#666666">[varchar(5)]</text>
<polygon fill="none" stroke="#000000" points="1054.5,-267.5 1054.5,-297.5 1250.5,-297.5 1250.5,-267.5 1054.5,-267.5"/>
<text text-anchor="start" x="1061.5" y="-278.9" font-family="Arial" font-size="14.00" fill="#000000">created_at    </text>
<text text-anchor="start" x="1161.8422" y="-278.9" font-family="Arial" font-size="14.00" fill="#666666">[timestamp]</text>
<polygon fill="none" stroke="#000000" points="1054.5,-237.5 1054.5,-267.5 1250.5,-267.5 1250.5,-237.5 1054.5,-237.5"/>
<text text-anchor="start" x="1061.5" y="-248.9" font-family="Arial" font-size="14.00" fill="#000000">updated_at    </text>
<text text-anchor="start" x="1165.7468" y="-248.9" font-family="Arial" font-size="14.00" fill="#666666">[timestamp]</text>
<polygon fill="none" stroke="#000000" points="1054.5,-207.5 1054.5,-237.5 1250.5,-237.5 1250.5,-207.5 1054.5,-207.5"/>
<text text-anchor="start" x="1061.5" y="-218.9" font-family="Arial" font-size="14.00" fill="#000000">expired_at    </text>
<text text-anchor="start" x="1161.0582" y="-218.9" font-family="Arial" font-size="14.00" fill="#666666">[timestamp]</text>
</g>
<!-- orders_detail -->
<g id="node5" class="node">
<title>orders_detail</title>
<polygon fill="#efefef" stroke="transparent" points="1355.5,-792.5 1355.5,-827.5 1600.5,-827.5 1600.5,-792.5 1355.5,-792.5"/>
<polygon fill="none" stroke="#000000" points="1355.5,-792.5 1355.5,-827.5 1600.5,-827.5 1600.5,-792.5 1355.5,-792.5"/>
<text text-anchor="start" x="1362.2068" y="-805.3" font-family="Arial Bold" font-size="18.00" fill="#000000">orders_detail</text>
<text text-anchor="start" x="1466.2252" y="-805.3" font-family="Arial" font-size="14.00" fill="#000000">    </text>
<text text-anchor="start" x="1500.43" y="-805.3" font-family="Arial" font-size="14.00" fill="#666666">[BASE TABLE]</text>
<polygon fill="none" stroke="#000000" points="1355.5,-762.5 1355.5,-792.5 1600.5,-792.5 1600.5,-762.5 1355.5,-762.5"/>
<text text-anchor="start" x="1362.5" y="-773.9" font-family="Arial" font-size="14.00" fill="#000000">id    </text>
<text text-anchor="start" x="1407.594" y="-773.9" font-family="Arial" font-size="14.00" fill="#666666">[bigint unsigned]</text>
<polygon fill="none" stroke="#000000" points="1355.5,-732.5 1355.5,-762.5 1600.5,-762.5 1600.5,-732.5 1355.5,-732.5"/>
<text text-anchor="start" x="1362.5" y="-743.9" font-family="Arial" font-size="14.00" fill="#000000">orders_id    </text>
<text text-anchor="start" x="1455.0456" y="-743.9" font-family="Arial" font-size="14.00" fill="#666666">[bigint]</text>
<polygon fill="none" stroke="#000000" points="1355.5,-702.5 1355.5,-732.5 1600.5,-732.5 1600.5,-702.5 1355.5,-702.5"/>
<text text-anchor="start" x="1362.5" y="-713.9" font-family="Arial" font-size="14.00" fill="#000000">email    </text>
<text text-anchor="start" x="1430.1438" y="-713.9" font-family="Arial" font-size="14.00" fill="#666666">[varchar(50)]</text>
<polygon fill="none" stroke="#000000" points="1355.5,-672.5 1355.5,-702.5 1600.5,-702.5 1600.5,-672.5 1355.5,-672.5"/>
<text text-anchor="start" x="1362.5" y="-683.9" font-family="Arial" font-size="14.00" fill="#000000">mobile    </text>
<text text-anchor="start" x="1437.9264" y="-683.9" font-family="Arial" font-size="14.00" fill="#666666">[varchar(20)]</text>
<polygon fill="none" stroke="#000000" points="1355.5,-642.5 1355.5,-672.5 1600.5,-672.5 1600.5,-642.5 1355.5,-642.5"/>
<text text-anchor="start" x="1362.5" y="-653.9" font-family="Arial" font-size="14.00" fill="#000000">name    </text>
<text text-anchor="start" x="1431.7132" y="-653.9" font-family="Arial" font-size="14.00" fill="#666666">[varchar(50)]</text>
<polygon fill="none" stroke="#000000" points="1355.5,-612.5 1355.5,-642.5 1600.5,-642.5 1600.5,-612.5 1355.5,-612.5"/>
<text text-anchor="start" x="1362.5" y="-623.9" font-family="Arial" font-size="14.00" fill="#000000">identity    </text>
<text text-anchor="start" x="1441.047" y="-623.9" font-family="Arial" font-size="14.00" fill="#666666">[varchar(20)]</text>
<polygon fill="none" stroke="#000000" points="1355.5,-582.5 1355.5,-612.5 1600.5,-612.5 1600.5,-582.5 1355.5,-582.5"/>
<text text-anchor="start" x="1362.5" y="-593.9" font-family="Arial" font-size="14.00" fill="#000000">passport    </text>
<text text-anchor="start" x="1450.3864" y="-593.9" font-family="Arial" font-size="14.00" fill="#666666">[varchar(20)]</text>
<polygon fill="none" stroke="#000000" points="1355.5,-552.5 1355.5,-582.5 1600.5,-582.5 1600.5,-552.5 1355.5,-552.5"/>
<text text-anchor="start" x="1362.5" y="-563.9" font-family="Arial" font-size="14.00" fill="#000000">birthday    </text>
<text text-anchor="start" x="1446.493" y="-563.9" font-family="Arial" font-size="14.00" fill="#666666">[date]</text>
<polygon fill="none" stroke="#000000" points="1355.5,-522.5 1355.5,-552.5 1600.5,-552.5 1600.5,-522.5 1355.5,-522.5"/>
<text text-anchor="start" x="1362.5" y="-533.9" font-family="Arial" font-size="14.00" fill="#000000">car_license    </text>
<text text-anchor="start" x="1467.4916" y="-533.9" font-family="Arial" font-size="14.00" fill="#666666">[varchar(20)]</text>
<polygon fill="none" stroke="#000000" points="1355.5,-492.5 1355.5,-522.5 1600.5,-522.5 1600.5,-492.5 1355.5,-492.5"/>
<text text-anchor="start" x="1362.5" y="-503.9" font-family="Arial" font-size="14.00" fill="#000000">car_brand_id    </text>
<text text-anchor="start" x="1478.3934" y="-503.9" font-family="Arial" font-size="14.00" fill="#666666">[int]</text>
<polygon fill="none" stroke="#000000" points="1355.5,-462.5 1355.5,-492.5 1600.5,-492.5 1600.5,-462.5 1355.5,-462.5"/>
<text text-anchor="start" x="1362.5" y="-473.9" font-family="Arial" font-size="14.00" fill="#000000">car_model_id    </text>
<text text-anchor="start" x="1480.7174" y="-473.9" font-family="Arial" font-size="14.00" fill="#666666">[int]</text>
<polygon fill="none" stroke="#000000" points="1355.5,-432.5 1355.5,-462.5 1600.5,-462.5 1600.5,-432.5 1355.5,-432.5"/>
<text text-anchor="start" x="1362.5" y="-443.9" font-family="Arial" font-size="14.00" fill="#000000">car_type_id    </text>
<text text-anchor="start" x="1469.0582" y="-443.9" font-family="Arial" font-size="14.00" fill="#666666">[int]</text>
<polygon fill="none" stroke="#000000" points="1355.5,-402.5 1355.5,-432.5 1600.5,-432.5 1600.5,-402.5 1355.5,-402.5"/>
<text text-anchor="start" x="1362.5" y="-413.9" font-family="Arial" font-size="14.00" fill="#000000">car_age    </text>
<text text-anchor="start" x="1447.2784" y="-413.9" font-family="Arial" font-size="14.00" fill="#666666">[int]</text>
<polygon fill="none" stroke="#000000" points="1355.5,-372.5 1355.5,-402.5 1600.5,-402.5 1600.5,-372.5 1355.5,-372.5"/>
<text text-anchor="start" x="1362.5" y="-383.9" font-family="Arial" font-size="14.00" fill="#000000">is_local    </text>
<text text-anchor="start" x="1443.3724" y="-383.9" font-family="Arial" font-size="14.00" fill="#666666">[tinyint]</text>
<polygon fill="none" stroke="#000000" points="1355.5,-342.5 1355.5,-372.5 1600.5,-372.5 1600.5,-342.5 1355.5,-342.5"/>
<text text-anchor="start" x="1362.5" y="-353.9" font-family="Arial" font-size="14.00" fill="#000000">transmission    </text>
<text text-anchor="start" x="1475.2602" y="-353.9" font-family="Arial" font-size="14.00" fill="#666666">[varchar(5)]</text>
<polygon fill="none" stroke="#000000" points="1355.5,-312.5 1355.5,-342.5 1600.5,-342.5 1600.5,-312.5 1355.5,-312.5"/>
<text text-anchor="start" x="1362.5" y="-323.9" font-family="Arial" font-size="14.00" fill="#000000">exhaust    </text>
<text text-anchor="start" x="1445.7258" y="-323.9" font-family="Arial" font-size="14.00" fill="#666666">[int]</text>
<polygon fill="none" stroke="#000000" points="1355.5,-282.5 1355.5,-312.5 1600.5,-312.5 1600.5,-282.5 1355.5,-282.5"/>
<text text-anchor="start" x="1362.5" y="-293.9" font-family="Arial" font-size="14.00" fill="#000000">doors    </text>
<text text-anchor="start" x="1431.7132" y="-293.9" font-family="Arial" font-size="14.00" fill="#666666">[int]</text>
<polygon fill="none" stroke="#000000" points="1355.5,-252.5 1355.5,-282.5 1600.5,-282.5 1600.5,-252.5 1355.5,-252.5"/>
<text text-anchor="start" x="1362.5" y="-263.9" font-family="Arial" font-size="14.00" fill="#000000">seats    </text>
<text text-anchor="start" x="1430.1606" y="-263.9" font-family="Arial" font-size="14.00" fill="#666666">[int]</text>
<polygon fill="none" stroke="#000000" points="1355.5,-222.5 1355.5,-252.5 1600.5,-252.5 1600.5,-222.5 1355.5,-222.5"/>
<text text-anchor="start" x="1362.5" y="-233.9" font-family="Arial" font-size="14.00" fill="#000000">car_insurances    </text>
<text text-anchor="start" x="1491.6108" y="-233.9" font-family="Arial" font-size="14.00" fill="#666666">[varchar(50)]</text>
<polygon fill="none" stroke="#000000" points="1355.5,-192.5 1355.5,-222.5 1600.5,-222.5 1600.5,-192.5 1355.5,-192.5"/>
<text text-anchor="start" x="1362.5" y="-203.9" font-family="Arial" font-size="14.00" fill="#000000">car_equips    </text>
<text text-anchor="start" x="1465.1676" y="-203.9" font-family="Arial" font-size="14.00" fill="#666666">[varchar(50)]</text>
<polygon fill="none" stroke="#000000" points="1355.5,-162.5 1355.5,-192.5 1600.5,-192.5 1600.5,-162.5 1355.5,-162.5"/>
<text text-anchor="start" x="1362.5" y="-173.9" font-family="Arial" font-size="14.00" fill="#000000">fuel_rule    </text>
<text text-anchor="start" x="1450.3822" y="-173.9" font-family="Arial" font-size="14.00" fill="#666666">[varchar(50)]</text>
<polygon fill="none" stroke="#000000" points="1355.5,-132.5 1355.5,-162.5 1600.5,-162.5 1600.5,-132.5 1355.5,-132.5"/>
<text text-anchor="start" x="1362.5" y="-143.9" font-family="Arial" font-size="14.00" fill="#000000">store_policy    </text>
<text text-anchor="start" x="1471.3822" y="-143.9" font-family="Arial" font-size="14.00" fill="#666666">[varchar(50)]</text>
<polygon fill="none" stroke="#000000" points="1355.5,-102.5 1355.5,-132.5 1600.5,-132.5 1600.5,-102.5 1355.5,-102.5"/>
<text text-anchor="start" x="1362.5" y="-113.9" font-family="Arial" font-size="14.00" fill="#000000">distance_rule    </text>
<text text-anchor="start" x="1479.9474" y="-113.9" font-family="Arial" font-size="14.00" fill="#666666">[varchar(50)]</text>
<polygon fill="none" stroke="#000000" points="1355.5,-72.5 1355.5,-102.5 1600.5,-102.5 1600.5,-72.5 1355.5,-72.5"/>
<text text-anchor="start" x="1362.5" y="-83.9" font-family="Arial" font-size="14.00" fill="#000000">created_at    </text>
<text text-anchor="start" x="1462.8422" y="-83.9" font-family="Arial" font-size="14.00" fill="#666666">[timestamp]</text>
<polygon fill="none" stroke="#000000" points="1355.5,-42.5 1355.5,-72.5 1600.5,-72.5 1600.5,-42.5 1355.5,-42.5"/>
<text text-anchor="start" x="1362.5" y="-53.9" font-family="Arial" font-size="14.00" fill="#000000">updated_at    </text>
<text text-anchor="start" x="1466.7468" y="-53.9" font-family="Arial" font-size="14.00" fill="#666666">[timestamp]</text>
</g>
<!-- orders_payment -->
<g id="node6" class="node">
<title>orders_payment</title>
<polygon fill="#efefef" stroke="transparent" points="1704.5,-552.5 1704.5,-587.5 1975.5,-587.5 1975.5,-552.5 1704.5,-552.5"/>
<polygon fill="none" stroke="#000000" points="1704.5,-552.5 1704.5,-587.5 1975.5,-587.5 1975.5,-552.5 1704.5,-552.5"/>
<text text-anchor="start" x="1711.2018" y="-565.3" font-family="Arial Bold" font-size="18.00" fill="#000000">orders_payment</text>
<text text-anchor="start" x="1841.2302" y="-565.3" font-family="Arial" font-size="14.00" fill="#000000">    </text>
<text text-anchor="start" x="1875.435" y="-565.3" font-family="Arial" font-size="14.00" fill="#666666">[BASE TABLE]</text>
<polygon fill="none" stroke="#000000" points="1704.5,-522.5 1704.5,-552.5 1975.5,-552.5 1975.5,-522.5 1704.5,-522.5"/>
<text text-anchor="start" x="1711.5" y="-533.9" font-family="Arial" font-size="14.00" fill="#000000">id    </text>
<text text-anchor="start" x="1756.594" y="-533.9" font-family="Arial" font-size="14.00" fill="#666666">[bigint unsigned]</text>
<polygon fill="none" stroke="#000000" points="1704.5,-492.5 1704.5,-522.5 1975.5,-522.5 1975.5,-492.5 1704.5,-492.5"/>
<text text-anchor="start" x="1711.5" y="-503.9" font-family="Arial" font-size="14.00" fill="#000000">orders_id    </text>
<text text-anchor="start" x="1804.0456" y="-503.9" font-family="Arial" font-size="14.00" fill="#666666">[bigint]</text>
<polygon fill="none" stroke="#000000" points="1704.5,-462.5 1704.5,-492.5 1975.5,-492.5 1975.5,-462.5 1704.5,-462.5"/>
<text text-anchor="start" x="1711.5" y="-473.9" font-family="Arial" font-size="14.00" fill="#000000">pay_counts    </text>
<text text-anchor="start" x="1817.291" y="-473.9" font-family="Arial" font-size="14.00" fill="#666666">[int]</text>
<polygon fill="none" stroke="#000000" points="1704.5,-432.5 1704.5,-462.5 1975.5,-462.5 1975.5,-432.5 1704.5,-432.5"/>
<text text-anchor="start" x="1711.5" y="-443.9" font-family="Arial" font-size="14.00" fill="#000000">price    </text>
<text text-anchor="start" x="1776.0372" y="-443.9" font-family="Arial" font-size="14.00" fill="#666666">[int]</text>
<polygon fill="none" stroke="#000000" points="1704.5,-402.5 1704.5,-432.5 1975.5,-432.5 1975.5,-402.5 1704.5,-402.5"/>
<text text-anchor="start" x="1711.5" y="-413.9" font-family="Arial" font-size="14.00" fill="#000000">paid    </text>
<text text-anchor="start" x="1772.1592" y="-413.9" font-family="Arial" font-size="14.00" fill="#666666">[tinyint]</text>
<polygon fill="none" stroke="#000000" points="1704.5,-372.5 1704.5,-402.5 1975.5,-402.5 1975.5,-372.5 1704.5,-372.5"/>
<text text-anchor="start" x="1711.5" y="-383.9" font-family="Arial" font-size="14.00" fill="#000000">credit_last_digits    </text>
<text text-anchor="start" x="1849.9418" y="-383.9" font-family="Arial" font-size="14.00" fill="#666666">[varchar(10)]</text>
<polygon fill="none" stroke="#000000" points="1704.5,-342.5 1704.5,-372.5 1975.5,-372.5 1975.5,-342.5 1704.5,-342.5"/>
<text text-anchor="start" x="1711.5" y="-353.9" font-family="Arial" font-size="14.00" fill="#000000">paid_at    </text>
<text text-anchor="start" x="1791.615" y="-353.9" font-family="Arial" font-size="14.00" fill="#666666">[timestamp]</text>
<polygon fill="none" stroke="#000000" points="1704.5,-312.5 1704.5,-342.5 1975.5,-342.5 1975.5,-312.5 1704.5,-312.5"/>
<text text-anchor="start" x="1711.5" y="-323.9" font-family="Arial" font-size="14.00" fill="#000000">created_at    </text>
<text text-anchor="start" x="1811.8422" y="-323.9" font-family="Arial" font-size="14.00" fill="#666666">[timestamp]</text>
<polygon fill="none" stroke="#000000" points="1704.5,-282.5 1704.5,-312.5 1975.5,-312.5 1975.5,-282.5 1704.5,-282.5"/>
<text text-anchor="start" x="1711.5" y="-293.9" font-family="Arial" font-size="14.00" fill="#000000">updated_at    </text>
<text text-anchor="start" x="1815.7468" y="-293.9" font-family="Arial" font-size="14.00" fill="#666666">[timestamp]</text>
</g>
<!-- password_resets -->
<g id="node7" class="node">
<title>password_resets</title>
<polygon fill="#efefef" stroke="transparent" points="2079.5,-477.5 2079.5,-512.5 2356.5,-512.5 2356.5,-477.5 2079.5,-477.5"/>
<polygon fill="none" stroke="#000000" points="2079.5,-477.5 2079.5,-512.5 2356.5,-512.5 2356.5,-477.5 2079.5,-477.5"/>
<text text-anchor="start" x="2086.2039" y="-490.3" font-family="Arial Bold" font-size="18.00" fill="#000000">password_resets</text>
<text text-anchor="start" x="2222.2281" y="-490.3" font-family="Arial" font-size="14.00" fill="#000000">    </text>
<text text-anchor="start" x="2256.4329" y="-490.3" font-family="Arial" font-size="14.00" fill="#666666">[BASE TABLE]</text>
<polygon fill="none" stroke="#000000" points="2079.5,-447.5 2079.5,-477.5 2356.5,-477.5 2356.5,-447.5 2079.5,-447.5"/>
<text text-anchor="start" x="2086.5" y="-458.9" font-family="Arial" font-size="14.00" fill="#000000">email    </text>
<text text-anchor="start" x="2154.1438" y="-458.9" font-family="Arial" font-size="14.00" fill="#666666">[varchar(255)]</text>
<polygon fill="none" stroke="#000000" points="2079.5,-417.5 2079.5,-447.5 2356.5,-447.5 2356.5,-417.5 2079.5,-417.5"/>
<text text-anchor="start" x="2086.5" y="-428.9" font-family="Arial" font-size="14.00" fill="#000000">token    </text>
<text text-anchor="start" x="2154.9432" y="-428.9" font-family="Arial" font-size="14.00" fill="#666666">[varchar(255)]</text>
<polygon fill="none" stroke="#000000" points="2079.5,-387.5 2079.5,-417.5 2356.5,-417.5 2356.5,-387.5 2079.5,-387.5"/>
<text text-anchor="start" x="2086.5" y="-398.9" font-family="Arial" font-size="14.00" fill="#000000">created_at    </text>
<text text-anchor="start" x="2186.8422" y="-398.9" font-family="Arial" font-size="14.00" fill="#666666">[timestamp]</text>
<polygon fill="none" stroke="#000000" points="2079.5,-357.5 2079.5,-387.5 2356.5,-387.5 2356.5,-357.5 2079.5,-357.5"/>
<text text-anchor="start" x="2086.5" y="-368.9" font-family="Arial" font-size="14.00" fill="#000000">store_id    </text>
<text text-anchor="start" x="2170.493" y="-368.9" font-family="Arial" font-size="14.00" fill="#666666">[int]</text>
</g>
<!-- store_api_config -->
<g id="node8" class="node">
<title>store_api_config</title>
<polygon fill="#efefef" stroke="transparent" points="2460.5,-477.5 2460.5,-512.5 2733.5,-512.5 2733.5,-477.5 2460.5,-477.5"/>
<polygon fill="none" stroke="#000000" points="2460.5,-477.5 2460.5,-512.5 2733.5,-512.5 2733.5,-477.5 2460.5,-477.5"/>
<text text-anchor="start" x="2467.1956" y="-490.3" font-family="Arial Bold" font-size="18.00" fill="#000000">store_api_config</text>
<text text-anchor="start" x="2599.2364" y="-490.3" font-family="Arial" font-size="14.00" fill="#000000">    </text>
<text text-anchor="start" x="2633.4412" y="-490.3" font-family="Arial" font-size="14.00" fill="#666666">[BASE TABLE]</text>
<polygon fill="none" stroke="#000000" points="2460.5,-447.5 2460.5,-477.5 2733.5,-477.5 2733.5,-447.5 2460.5,-447.5"/>
<text text-anchor="start" x="2467.5" y="-458.9" font-family="Arial" font-size="14.00" fill="#000000">store_id    </text>
<text text-anchor="start" x="2551.493" y="-458.9" font-family="Arial" font-size="14.00" fill="#666666">[int]</text>
<polygon fill="none" stroke="#000000" points="2460.5,-417.5 2460.5,-447.5 2733.5,-447.5 2733.5,-417.5 2460.5,-417.5"/>
<text text-anchor="start" x="2467.5" y="-428.9" font-family="Arial" font-size="14.00" fill="#000000">created_at    </text>
<text text-anchor="start" x="2567.8422" y="-428.9" font-family="Arial" font-size="14.00" fill="#666666">[timestamp]</text>
<polygon fill="none" stroke="#000000" points="2460.5,-387.5 2460.5,-417.5 2733.5,-417.5 2733.5,-387.5 2460.5,-387.5"/>
<text text-anchor="start" x="2467.5" y="-398.9" font-family="Arial" font-size="14.00" fill="#000000">updated_at    </text>
<text text-anchor="start" x="2571.7468" y="-398.9" font-family="Arial" font-size="14.00" fill="#666666">[timestamp]</text>
<polygon fill="none" stroke="#000000" points="2460.5,-357.5 2460.5,-387.5 2733.5,-387.5 2733.5,-357.5 2460.5,-357.5"/>
<text text-anchor="start" x="2467.5" y="-368.9" font-family="Arial" font-size="14.00" fill="#000000">every8d    </text>
<text text-anchor="start" x="2551.4958" y="-368.9" font-family="Arial" font-size="14.00" fill="#666666">[text]</text>
</g>
<!-- store_extensions -->
<g id="node9" class="node">
<title>store_extensions</title>
<polygon fill="#efefef" stroke="transparent" points="2837.5,-492.5 2837.5,-527.5 3114.5,-527.5 3114.5,-492.5 2837.5,-492.5"/>
<polygon fill="none" stroke="#000000" points="2837.5,-492.5 2837.5,-527.5 3114.5,-527.5 3114.5,-492.5 2837.5,-492.5"/>
<text text-anchor="start" x="2844.1958" y="-505.3" font-family="Arial Bold" font-size="18.00" fill="#000000">store_extensions</text>
<text text-anchor="start" x="2980.2362" y="-505.3" font-family="Arial" font-size="14.00" fill="#000000">    </text>
<text text-anchor="start" x="3014.441" y="-505.3" font-family="Arial" font-size="14.00" fill="#666666">[BASE TABLE]</text>
<polygon fill="none" stroke="#000000" points="2837.5,-462.5 2837.5,-492.5 3114.5,-492.5 3114.5,-462.5 2837.5,-462.5"/>
<text text-anchor="start" x="2844.5" y="-473.9" font-family="Arial" font-size="14.00" fill="#000000">store_id    </text>
<text text-anchor="start" x="2928.493" y="-473.9" font-family="Arial" font-size="14.00" fill="#666666">[int]</text>
<polygon fill="none" stroke="#000000" points="2837.5,-432.5 2837.5,-462.5 3114.5,-462.5 3114.5,-432.5 2837.5,-432.5"/>
<text text-anchor="start" x="2844.5" y="-443.9" font-family="Arial" font-size="14.00" fill="#000000">car_price    </text>
<text text-anchor="start" x="2936.263" y="-443.9" font-family="Arial" font-size="14.00" fill="#666666">[tinyint(1)]</text>
<polygon fill="none" stroke="#000000" points="2837.5,-402.5 2837.5,-432.5 3114.5,-432.5 3114.5,-402.5 2837.5,-402.5"/>
<text text-anchor="start" x="2844.5" y="-413.9" font-family="Arial" font-size="14.00" fill="#000000">created_at    </text>
<text text-anchor="start" x="2944.8422" y="-413.9" font-family="Arial" font-size="14.00" fill="#666666">[timestamp]</text>
<polygon fill="none" stroke="#000000" points="2837.5,-372.5 2837.5,-402.5 3114.5,-402.5 3114.5,-372.5 2837.5,-372.5"/>
<text text-anchor="start" x="2844.5" y="-383.9" font-family="Arial" font-size="14.00" fill="#000000">updated_at    </text>
<text text-anchor="start" x="2948.7468" y="-383.9" font-family="Arial" font-size="14.00" fill="#666666">[timestamp]</text>
<polygon fill="none" stroke="#000000" points="2837.5,-342.5 2837.5,-372.5 3114.5,-372.5 3114.5,-342.5 2837.5,-342.5"/>
<text text-anchor="start" x="2844.5" y="-353.9" font-family="Arial" font-size="14.00" fill="#000000">sms    </text>
<text text-anchor="start" x="2904.3654" y="-353.9" font-family="Arial" font-size="14.00" fill="#666666">[tinyint(1)]</text>
</g>
<!-- store_list -->
<g id="node10" class="node">
<title>store_list</title>
<polygon fill="#efefef" stroke="transparent" points="3218.5,-492.5 3218.5,-527.5 3431.5,-527.5 3431.5,-492.5 3218.5,-492.5"/>
<polygon fill="none" stroke="#000000" points="3218.5,-492.5 3218.5,-527.5 3431.5,-527.5 3431.5,-492.5 3218.5,-492.5"/>
<text text-anchor="start" x="3225.2142" y="-505.3" font-family="Arial Bold" font-size="18.00" fill="#000000">store_list</text>
<text text-anchor="start" x="3297.2178" y="-505.3" font-family="Arial" font-size="14.00" fill="#000000">    </text>
<text text-anchor="start" x="3331.4226" y="-505.3" font-family="Arial" font-size="14.00" fill="#666666">[BASE TABLE]</text>
<polygon fill="none" stroke="#000000" points="3218.5,-462.5 3218.5,-492.5 3431.5,-492.5 3431.5,-462.5 3218.5,-462.5"/>
<text text-anchor="start" x="3225.5" y="-473.9" font-family="Arial" font-size="14.00" fill="#000000">id    </text>
<text text-anchor="start" x="3270.594" y="-473.9" font-family="Arial" font-size="14.00" fill="#666666">[bigint unsigned]</text>
<polygon fill="none" stroke="#000000" points="3218.5,-432.5 3218.5,-462.5 3431.5,-462.5 3431.5,-432.5 3218.5,-432.5"/>
<text text-anchor="start" x="3225.5" y="-443.9" font-family="Arial" font-size="14.00" fill="#000000">store_id    </text>
<text text-anchor="start" x="3309.493" y="-443.9" font-family="Arial" font-size="14.00" fill="#666666">[int]</text>
<polygon fill="none" stroke="#000000" points="3218.5,-402.5 3218.5,-432.5 3431.5,-432.5 3431.5,-402.5 3218.5,-402.5"/>
<text text-anchor="start" x="3225.5" y="-413.9" font-family="Arial" font-size="14.00" fill="#000000">subdomain    </text>
<text text-anchor="start" x="3328.1676" y="-413.9" font-family="Arial" font-size="14.00" fill="#666666">[varchar(50)]</text>
<polygon fill="none" stroke="#000000" points="3218.5,-372.5 3218.5,-402.5 3431.5,-402.5 3431.5,-372.5 3218.5,-372.5"/>
<text text-anchor="start" x="3225.5" y="-383.9" font-family="Arial" font-size="14.00" fill="#000000">created_at    </text>
<text text-anchor="start" x="3325.8422" y="-383.9" font-family="Arial" font-size="14.00" fill="#666666">[timestamp]</text>
<polygon fill="none" stroke="#000000" points="3218.5,-342.5 3218.5,-372.5 3431.5,-372.5 3431.5,-342.5 3218.5,-342.5"/>
<text text-anchor="start" x="3225.5" y="-353.9" font-family="Arial" font-size="14.00" fill="#000000">updated_at    </text>
<text text-anchor="start" x="3329.7468" y="-353.9" font-family="Arial" font-size="14.00" fill="#666666">[timestamp]</text>
</g>
<!-- store_setting -->
<g id="node11" class="node">
<title>store_setting</title>
<polygon fill="#efefef" stroke="transparent" points="3535.5,-492.5 3535.5,-527.5 3779.5,-527.5 3779.5,-492.5 3535.5,-492.5"/>
<polygon fill="none" stroke="#000000" points="3535.5,-492.5 3535.5,-527.5 3779.5,-527.5 3779.5,-492.5 3535.5,-492.5"/>
<text text-anchor="start" x="3542.2009" y="-505.3" font-family="Arial Bold" font-size="18.00" fill="#000000">store_setting</text>
<text text-anchor="start" x="3645.2311" y="-505.3" font-family="Arial" font-size="14.00" fill="#000000">    </text>
<text text-anchor="start" x="3679.4359" y="-505.3" font-family="Arial" font-size="14.00" fill="#666666">[BASE TABLE]</text>
<polygon fill="none" stroke="#000000" points="3535.5,-462.5 3535.5,-492.5 3779.5,-492.5 3779.5,-462.5 3535.5,-462.5"/>
<text text-anchor="start" x="3542.5" y="-473.9" font-family="Arial" font-size="14.00" fill="#000000">id    </text>
<text text-anchor="start" x="3587.594" y="-473.9" font-family="Arial" font-size="14.00" fill="#666666">[bigint unsigned]</text>
<polygon fill="none" stroke="#000000" points="3535.5,-432.5 3535.5,-462.5 3779.5,-462.5 3779.5,-432.5 3535.5,-432.5"/>
<text text-anchor="start" x="3542.5" y="-443.9" font-family="Arial" font-size="14.00" fill="#000000">store_id    </text>
<text text-anchor="start" x="3626.493" y="-443.9" font-family="Arial" font-size="14.00" fill="#666666">[int]</text>
<polygon fill="none" stroke="#000000" points="3535.5,-402.5 3535.5,-432.5 3779.5,-432.5 3779.5,-402.5 3535.5,-402.5"/>
<text text-anchor="start" x="3542.5" y="-413.9" font-family="Arial" font-size="14.00" fill="#000000">newebpay_keys    </text>
<text text-anchor="start" x="3677.0722" y="-413.9" font-family="Arial" font-size="14.00" fill="#666666">[text]</text>
<polygon fill="none" stroke="#000000" points="3535.5,-372.5 3535.5,-402.5 3779.5,-402.5 3779.5,-372.5 3535.5,-372.5"/>
<text text-anchor="start" x="3542.5" y="-383.9" font-family="Arial" font-size="14.00" fill="#000000">created_at    </text>
<text text-anchor="start" x="3642.8422" y="-383.9" font-family="Arial" font-size="14.00" fill="#666666">[timestamp]</text>
<polygon fill="none" stroke="#000000" points="3535.5,-342.5 3535.5,-372.5 3779.5,-372.5 3779.5,-342.5 3535.5,-342.5"/>
<text text-anchor="start" x="3542.5" y="-353.9" font-family="Arial" font-size="14.00" fill="#000000">updated_at    </text>
<text text-anchor="start" x="3646.7468" y="-353.9" font-family="Arial" font-size="14.00" fill="#666666">[timestamp]</text>
</g>
</g>
</svg>
